<svg xmlns="http://www.w3.org/2000/svg" viewBox="0 0 48 48" width="28" height="28" fill="none">
  <rect x="6" y="4" width="36" height="40" rx="7" fill="#FFFFFF" stroke="#CBD5E1" stroke-width="1.5"/>
  <rect x="18" y="7" width="12" height="3.5" rx="1.75" fill="#4F46E5"/>
  <path d="M12 16.5C12 14.5 13.5 13 15.5 13H18.5C20.5 13 22 14.5 22 16.5C22 18.5 20.5 20 18.5 20H15.5C13.5 20 12 18.5 12 16.5Z" fill="#F97316"/>
  <rect x="25" y="14" width="12" height="2.5" rx="1.25" fill="#CBD5E1"/>
  <rect x="25" y="18" width="9" height="2" rx="1" fill="#E2E8F0"/>
  <rect x="12" y="23" width="15" height="5" rx="2" fill="#DBEAFE"/>
  <rect x="11" y="36" width="4.5" height="5" rx="1.5" fill="#2563EB"/>
  <rect x="17.5" y="31" width="4.5" height="10" rx="1.5" fill="#C026D3"/>
  <rect x="24" y="27" width="4.5" height="14" rx="1.5" fill="#E11D48"/>
  <rect x="30.5" y="23" width="5" height="18" rx="1.5" fill="#16A34A"/>
</svg>